<?xml version="1.0" encoding="utf-8"?>
<!-- Generator: Adobe Illustrator 19.0.0, SVG Export Plug-In . SVG Version: 6.00 Build 0)  -->
<svg version="1.1" id="Layer_1" xmlns="http://www.w3.org/2000/svg" xmlns:xlink="http://www.w3.org/1999/xlink" x="0px" y="0px"
	 viewBox="0 0 100 100" style="enable-background:new 0 0 100 100;" xml:space="preserve">
<style type="text/css">
	.st0{fill:#565D66;}
</style>
<g id="XMLID_2_">
	<path id="XMLID_3_" class="st0" d="M35.4,47.2c0-2,0.4-3.9,1.2-5.7c0.8-1.8,1.9-3.3,3.2-4.6c1.3-1.3,2.9-2.4,4.7-3.1
		c1.8-0.8,3.7-1.2,5.7-1.2c2.1,0,3.9,0.4,5.7,1.2c1.7,0.8,3.4,1.9,4.9,3.1h0.1h0.2c0.2-0.1,0.3-0.1,0.4-0.2c0.2-0.2,0.6-0.6,1.2-1.1
		c0.6-0.5,1.2-1.1,1.9-1.7c0.7-0.6,1.3-1.1,1.9-1.7c0.6-0.5,1-0.9,1.3-1.1l1-1c0-0.1-0.1-0.2-0.3-0.4c-0.2-0.2-0.3-0.3-0.3-0.4
		c-2.5-2.3-5.2-4.1-8.2-5.4c-3-1.3-6.2-1.9-9.6-1.9c-2.2,0-4.3,0.3-6.4,0.9c-2.1,0.6-4.1,1.4-6,2.4c-1.9,1.1-3.6,2.3-5.2,3.9
		c-1.6,1.5-2.9,3.2-4,5.2c-0.4,0.6-0.7,1.4-1.1,2.3c-0.3,0.9-0.7,1.7-1.2,2.4c0,0.1-0.1,0.1-0.2,0.2h-0.2h-0.1l-11.2-3.8l-0.1-0.1
		c0-0.1,0.1-0.1,0.1-0.2c0.3-1.1,0.7-2.2,1.3-3.5c0.6-1.2,1.2-2.4,1.7-3.3c1.6-2.9,3.7-5.5,6-7.8c2.4-2.3,4.9-4.3,7.8-5.9
		c2.8-1.6,5.8-2.9,9-3.7c3.2-0.9,6.4-1.3,9.7-1.3c3.9,0,7.8,0.6,11.5,1.9c3.7,1.2,7.1,3,10.2,5.2c3.1,2.2,5.8,4.9,8.2,8
		c2.4,3.1,4.2,6.5,5.5,10.3v0.2c0,0.2,0,0.3-0.1,0.3c0,0-0.1,0.1-0.3,0.1l-20.7,7c-0.1,0-0.2,0.1-0.2,0.2c0,0.1,0,0.1,0,0.2
		c0,0.7,0.1,1.3,0.2,2c0.1,0.7,0.2,1.4,0.2,2.1c0,2-0.4,3.9-1.2,5.6c-0.8,1.8-1.8,3.3-3.1,4.6c-1.3,1.3-2.9,2.4-4.6,3.1
		c-1.8,0.8-3.6,1.2-5.6,1.2c-2,0-3.9-0.4-5.7-1.1c-1.8-0.8-3.4-1.8-4.7-3.1c-1.3-1.3-2.4-2.9-3.2-4.6C35.8,51.1,35.4,49.2,35.4,47.2
		z M41.1,89.2l3.4-17c0.1-0.2,0.1-0.3,0.1-0.4c0,0,0.1-0.1,0.2-0.1c0.9,0,1.7,0.1,2.6,0.2c0.8,0.2,1.7,0.2,2.6,0.2
		c0.9,0,1.7-0.1,2.6-0.2c0.8-0.2,1.7-0.2,2.6-0.2c0.2,0,0.3,0,0.3,0.1s0,0.2,0.1,0.5l3.5,17.8H41.1V89.2z"/>
</g>
</svg>
